<?xml version="1.0" encoding="iso-8859-1"?>
<!-- Generator: Adobe Illustrator 19.0.0, SVG Export Plug-In . SVG Version: 6.00 Build 0)  -->
<svg version="1.1" id="Capa_1" xmlns="http://www.w3.org/2000/svg" xmlns:xlink="http://www.w3.org/1999/xlink" x="0px" y="0px"
	 viewBox="0 0 468.293 468.293" style="enable-background:new 0 0 468.293 468.293;" xml:space="preserve">
<path style="fill:#1C75A1;" d="M396.488,468.293H71.805c-6.897,0-12.488-5.591-12.488-12.488V85.407
	C92.671,52.054,111.371,33.354,144.724,0h251.764c6.897,0,12.488,5.591,12.488,12.488v443.317
	C408.976,462.702,403.385,468.293,396.488,468.293z"/>
<path style="fill:#EBF0F3;" d="M339.917,427.331H128.376c-10.345,0-18.732-8.386-18.732-18.732V221.283
	c0-10.345,8.386-18.732,18.732-18.732h211.541c10.345,0,18.732,8.386,18.732,18.732V408.6
	C358.649,418.945,350.262,427.331,339.917,427.331z"/>
<g>
	<rect x="131.821" y="224.406" style="fill:#F6C358;" width="56.195" height="50.844"/>
	<rect x="206.049" y="224.406" style="fill:#F6C358;" width="130.747" height="50.844"/>
	<rect x="131.659" y="289.517" style="fill:#F6C358;" width="56.195" height="50.844"/>
	<rect x="280.414" y="289.517" style="fill:#F6C358;" width="56.195" height="50.844"/>
	<rect x="206.211" y="289.517" style="fill:#F6C358;" width="56.195" height="50.844"/>
	<rect x="131.497" y="354.654" style="fill:#F6C358;" width="56.195" height="50.844"/>
	<rect x="280.289" y="354.654" style="fill:#F6C358;" width="56.195" height="50.844"/>
	<rect x="206.049" y="354.654" style="fill:#F6C358;" width="56.195" height="50.844"/>
</g>
<g>
</g>
<g>
</g>
<g>
</g>
<g>
</g>
<g>
</g>
<g>
</g>
<g>
</g>
<g>
</g>
<g>
</g>
<g>
</g>
<g>
</g>
<g>
</g>
<g>
</g>
<g>
</g>
<g>
</g>
</svg>
